<svg id="Calque_1" data-name="Calque 1" xmlns="http://www.w3.org/2000/svg" viewBox="0 0 678.36 68.76"><path d="M434.6,4.75,400.32,72.43,385.58,42.89c-5.06,10-9.73,19.33-14.8,29.4-11.53-22.63-22.71-44.6-34.36-67.49,4.46,0,8.15-.27,11.76.15,1.19.13,2.54,1.84,3.2,3.15,5.74,11.21,11.34,22.5,17,33.77.66,1.31,1.37,2.6,2.41,4.56,2.84-5.64,5.52-10.61,7.79-15.75.52-1.18,0-3.15-.68-4.47-3.32-6.85-6.84-13.61-10.75-21.3,4.64,0,9.24-1.27,12.28.37s4.16,6.16,6.17,9.48c1.87-3.18,3.1-7.84,6-9.52s7.57-.37,12.26-.37c-3.5,7-6.59,13.53-10.07,19.86-1.78,3.24-1.9,5.9.06,9.09,2.34,3.8,4.14,7.92,6.57,12.68,2.58-5.13,4.83-9.59,7.05-14,3.95-7.92,8.05-15.77,11.74-23.82,1.42-3.1,3.2-4.27,6.5-3.93C428.39,5,431.1,4.75,434.6,4.75Z" transform="translate(0.18 -4.12)"/><path d="M75.17,5.43c12.32,0,24.48-.62,36.54.22,7.72.55,13.2,7.84,14.18,15.94,1.13,9.35-2.76,18.05-9.69,21.65-1.17.61-2.39,1.16-3.79,1.83l14.84,27.34c-4.12,0-7.51.19-10.87-.11-1-.1-2.18-1.41-2.76-2.46-4-7.2-8-14.41-11.79-21.76-1.27-2.5-2.76-3.54-5.55-3.35-3.26.23-6.54.06-10.35.06,0,7.74-.27,15.06.1,22.36.23,4.48-1.36,5.94-5.59,5.33a39.63,39.63,0,0,0-5.27,0Zm11,28.07c7.61,0,14.78.27,21.92-.1,4.35-.22,6.7-3.67,6.82-8.55.11-4.69-2.3-8.41-6.66-8.67-7.27-.41-14.57-.11-22.08-.11Z" transform="translate(0.18 -4.12)"/><path d="M598.26,72.5c-4.1,0-7.37.22-10.59-.12a5.1,5.1,0,0,1-3.2-2.46c-3.91-6.91-7.81-13.85-11.34-21-1.54-3.09-3.27-4.63-6.86-4.2a83.3,83.3,0,0,1-9.41.07V66.74c0,5.78,0,5.78-5.89,5.78h-5.11V5.05c1.93-.11,3.8-.32,5.68-.32,9.15,0,18.33-.26,27.46.31,9.81.61,16.11,6.41,17.66,15.07,1.88,10.55-2.28,19.57-11,23.86l-2.27,1.16ZM557,33.42c7.62,0,14.81.25,22-.1,4.16-.2,6.6-3.65,6.73-8.18s-2-8.51-6-8.77c-7.53-.48-15.11-.14-22.7-.14Z" transform="translate(0.18 -4.12)"/><path d="M301.07,27.74l-22.8,17.93L255.67,28v18c0,7.36-.19,14.73.09,22.08.13,3.62-1,4.91-4.58,4.52a61.06,61.06,0,0,0-6.53,0V5l33.6,26.35L311.62,5.15V72.09H301.07Z" transform="translate(0.18 -4.12)"/><path d="M517.57,38.69C517.51,57,502.15,72.38,484,72.38c-18.36,0-34.1-15.72-33.94-33.9a33.76,33.76,0,0,1,67.51.21Zm-56.26-.27A22.84,22.84,0,0,0,484,61.08c11.79.15,22.36-10.41,22.5-22.48S495.9,15.93,483.69,15.92C471.65,15.9,461.36,26.24,461.31,38.42Z" transform="translate(0.18 -4.12)"/><path d="M636.63,38.21v34H626.14V4.8h10.34V36.11l1,.41q5.5-6.63,11-13.24c3-3.59,5.92-7.18,8.84-10.8,7.29-9.07,7.83-9.29,20.88-7.43L651.54,37.68l26.32,33.88c-7.64,2.83-14,1.07-18.65-4.93q-9.65-12.42-19.34-24.79C639.09,40.85,638.19,40,636.63,38.21Z" transform="translate(0.18 -4.12)"/><path d="M185.23,4.76l33.92,67.67a105.05,105.05,0,0,1-11-.14c-1.09-.12-2.5-1.66-2.92-2.85-3.16-9.09-9.21-12.82-18.78-10.94a20.67,20.67,0,0,1-7.19,0c-5.79-1-9.59,1-10.92,6.84-1.45,6.4-5.62,8.11-11.58,7.13-1.43-.23-2.91-.17-5.17-.28Zm0,24.94c-2.68,6.36-4.92,11.64-7.29,17.26h16Z" transform="translate(0.18 -4.12)"/><path d="M.06,33.94H40.93V44.63H11.44V71.51c-.74.44-1,.7-1.25.73-10.13.94-10.13.94-10.13-9Z" transform="translate(0.18 -4.12)"/><path d="M.67,15.62c-.27-.46-.4-.58-.41-.71-1-10.08-1-10.08,9-10.08H44.62V15.62Z" transform="translate(0.18 -4.12)"/></svg>